<?xml version="1.0" encoding="utf-8"?>
<!-- Generator: Adobe Illustrator 22.1.0, SVG Export Plug-In . SVG Version: 6.00 Build 0)  -->
<svg version="1.1" id="Calque_1" xmlns="http://www.w3.org/2000/svg" xmlns:xlink="http://www.w3.org/1999/xlink" x="0px" y="0px"
	 viewBox="0 0 200 200" style="enable-background:new 0 0 200 200;" xml:space="preserve">
<style type="text/css">
	.st0{fill:#FFFFFF;}
</style>
<g>
	<path class="st0" d="M106.9,116.7c-0.9-1.2-1.6-3.1-1.6-5.1V66.6H91v45.1c0,1.9-0.6,3.8-1.8,5.4l-28.8,45.6c-0.3,0.4-0.5,0.6-0.3,1
		c0.2,0.4,0.5,0.4,0.6,0.4h74.9c0.1,0,0.4,0,0.6-0.4c0.2-0.4,0-0.6-0.1-0.7L106.9,116.7z M127.2,160.2H71.3c-3.6,0-4.6-1-2.4-4.3
		c0,0,11.9-19.1,12.9-20.3c3.4-4.2,15.2,9.4,25.2,8.7c3.5-0.2,6.8-1.2,10.1-2.3c0.7-0.3,1.5,0,1.9,0.6l9.6,15.1
		C129.2,158.8,128.4,160.2,127.2,160.2z"/>
	<path class="st0" d="M100,0L100,0C44.8,0,0,44.8,0,100v0c0,55.2,44.8,100,100,100h0c55.2,0,100-44.8,100-100v0
		C200,44.8,155.2,0,100,0z M103.8,19c5,0,9,4,9,9s-4,9-9,9s-9-4-9-9S98.8,19,103.8,19z M94.4,42.2c3.4,0,6.1,2.8,6.1,6.1
		s-2.8,6.1-6.1,6.1s-6.1-2.8-6.1-6.1S91,42.2,94.4,42.2z M144.3,167.6c-1.7,3.3-5,5.4-8.7,5.4H60.7c-3.7,0-7.1-2.1-8.7-5.4
		c-1.7-3.3-1.3-7.2,0.9-10.2l28.8-45.5l0.2-45.3h-5c-2.5,0-4.5-2-4.5-4.5c0-2.5,2-4.5,4.5-4.5h42.6c2.5,0,4.5,2,4.5,4.5
		c0,2.5-2,4.5-4.5,4.5h-5v45.1l29.2,46.1C145.6,160.4,146,164.3,144.3,167.6z"/>
</g>
</svg>
