<?xml version="1.0" encoding="utf-8"?>
<!-- Generator: Adobe Illustrator 22.1.0, SVG Export Plug-In . SVG Version: 6.00 Build 0)  -->
<svg version="1.1" id="Calque_1" xmlns="http://www.w3.org/2000/svg" xmlns:xlink="http://www.w3.org/1999/xlink" x="0px" y="0px"
	 viewBox="0 0 171 171" style="enable-background:new 0 0 171 171;" xml:space="preserve">
<style type="text/css">
	.st0{fill:none;stroke:#000000;stroke-width:8;stroke-miterlimit:10;}
	.st1{opacity:0.1;}
	.st2{fill:#FFFFFF;}
</style>
<path class="st0" d="M52.8,91.9"/>
<path class="st0" d="M52.8,105.7"/>
<polygon class="st1" points="171,78.9 122.1,30 55,36 38,41 37,115 56.5,134.5 50,141 80,171 171,171 "/>
<path class="st2" d="M121.1,50.9H50.3v49.2h9.6V60.4h61.3c5.3,0,9.6,4.3,9.6,9.6v51.7c0,5.3-4.3,9.6-9.6,9.6H59.8v-11.1h60.9V70.4
	l-49.9-0.1l0,9.6l40.3,0.1v30.6H49.9c-5.3,0-9.6-4.3-9.6-9.6V49.3c0-5.3,4.3-9.6,9.6-9.6h72v-9.6h-72c-10.5,0-19.1,8.6-19.1,19.1
	V101c0,10.5,8.6,19.1,19.1,19.1h0.3v20.7h70.8c10.5,0,19.1-8.6,19.1-19.1V70C140.2,59.4,131.6,50.9,121.1,50.9z"/>
</svg>
