<?xml version="1.0" encoding="utf-8"?>
<!-- Generator: Adobe Illustrator 22.1.0, SVG Export Plug-In . SVG Version: 6.00 Build 0)  -->
<svg version="1.1" id="Calque_1" xmlns="http://www.w3.org/2000/svg" xmlns:xlink="http://www.w3.org/1999/xlink" x="0px" y="0px"
	 viewBox="0 0 125 125" style="enable-background:new 0 0 125 125;" xml:space="preserve">
<style type="text/css">
	.st0{fill:#FFFFFF;}
</style>
<title>013E7E61-C463-49F1-BCDD-ABD1C42E4898</title>
<desc>Created with sketchtool.</desc>
<g id="Clip-2">
</g>
<path class="st0" d="M62.5,0C28,0,0,28,0,62.5C0,97,28,125,62.5,125S125,97,125,62.5C125,28,97,0,62.5,0z M50.9,29.9
	c0-2.9,1.2-5.6,3.2-7.7c2.1-2,4.8-3.2,7.7-3.2c6,0,10.9,4.9,10.9,10.9l0,2.1L61.9,42.8l-11-11.5L50.9,29.9z M31.5,31.6
	c2.1-2,4.8-3.1,7.8-3c2.9,0.1,5.6,1.3,7.6,3.4l0.6,0.6l12,12.6l-3.7,3.7l-23-0.1L31.1,47C27,42.7,27.1,35.8,31.5,31.6z M18,63
	c0-2.9,1.2-5.6,3.2-7.7c2.1-2,4.8-3.2,7.7-3.2h0l23.4,0.1L30.5,73.9l-1.6,0c-2.9,0-5.6-1.2-7.7-3.2C19.1,68.6,18,65.9,18,63z
	 M30.7,93.9c-4.2-4.3-4.2-11.2,0.1-15.4l46.5-46.1c4.3-4.2,11.2-4.2,15.4,0.1c4.2,4.3,4.2,11.2-0.1,15.4L46.1,94
	C41.8,98.2,34.9,98.2,30.7,93.9z M72.4,95.5c0,6-4.9,10.9-10.9,10.9h0c-6,0-10.9-4.9-10.9-10.9l0-1.1l10.8-10.7l11,11.5L72.4,95.5z
	 M91.8,94.7c-4.3,4.2-11.3,4-15.4-0.3L63.8,81.2l3.7-3.7l23,0.1l1.6,1.7C96.3,83.6,96.2,90.5,91.8,94.7z M102.1,71
	c-2.1,2-4.8,3.2-7.7,3.2h0l-23.4-0.1l1.6-1.6l3.4-3.4l3.4-3.3l2.4-2.4l11.1-11l1.6,0c6,0,10.9,4.9,10.8,10.9
	C105.3,66.3,104.2,69,102.1,71z"/>
</svg>
