<?xml version="1.0" encoding="utf-8"?>
<!-- Generator: Adobe Illustrator 22.1.0, SVG Export Plug-In . SVG Version: 6.00 Build 0)  -->
<svg version="1.1" id="Calque_1" xmlns="http://www.w3.org/2000/svg" xmlns:xlink="http://www.w3.org/1999/xlink" x="0px" y="0px"
	 viewBox="0 0 829.8 1199.9" style="enable-background:new 0 0 829.8 1199.9;" xml:space="preserve">
<style type="text/css">
	.st0{fill:#FFFFFF;}
</style>
<g transform="translate(0.000000,1280.000000) scale(0.100000,-0.100000)">
	<path class="st0" d="M3853.8,12789.9c-555-44-1043-176-1530-414c-1457-712-2370-2223-2322-3840c19-605,152-1155,406-1680
		c109-225,183-353,331-575c65-96,856-1369,1760-2827c903-1459,1646-2653,1650-2653s747,1194,1650,2652c904,1459,1695,2732,1760,2828
		c148,222,222,350,331,575c421,869,520,1869,279,2821c-244,958-822,1795-1640,2371c-696,491-1551,759-2404,752
		C4030.8,12798.9,3908.8,12794.9,3853.8,12789.9z M4488.8,11025.9c440-80,813-271,1120-575c769-761,825-1980,130-2812
		c-335-402-817-663-1344-728c-114-14-378-14-492,0c-853,105-1550,715-1764,1544c-141,545-52,1136,243,1613c330,531,862,876,1497,968
		C4008.8,11054.9,4359.8,11048.9,4488.8,11025.9z"/>
</g>
</svg>
